<?xml version="1.0" standalone="no"?>
<!DOCTYPE svg PUBLIC "-//W3C//DTD SVG 20010904//EN"
 "http://www.w3.org/TR/2001/REC-SVG-20010904/DTD/svg10.dtd">
<svg version="1.0" xmlns="http://www.w3.org/2000/svg"
 width="256.000000pt" height="256.000000pt" viewBox="0 0 256.000000 256.000000"
 preserveAspectRatio="xMidYMid meet">

<g transform="translate(0.000000,256.000000) scale(0.100000,-0.100000)"
fill="#000000" stroke="none">
<path d="M1135 2546 c-151 -36 -253 -92 -361 -200 -127 -128 -197 -276 -210
-449 -6 -71 -4 -90 14 -130 l21 -48 -37 -34 -37 -33 0 -139 c0 -135 1 -141 27
-180 31 -47 77 -78 129 -88 36 -7 37 -7 43 -67 8 -70 41 -166 79 -230 34 -59
122 -146 186 -183 49 -29 51 -31 51 -77 l0 -46 -67 -7 c-277 -26 -488 -101
-604 -215 -49 -48 -59 -66 -83 -139 -36 -112 -54 -244 -37 -265 12 -14 53 -16
302 -16 l289 0 0 40 0 40 -98 0 -98 0 -17 72 c-22 95 -60 155 -125 198 l-53
35 23 19 c75 62 284 126 481 147 l109 11 29 -28 c16 -15 28 -33 26 -39 -2 -5
-28 -13 -58 -17 -65 -8 -102 -43 -120 -113 -6 -25 -17 -45 -24 -45 -7 0 -18
-7 -25 -15 -11 -13 -9 -40 9 -147 12 -73 27 -138 33 -145 15 -19 681 -19 696
0 6 7 21 73 33 147 l23 133 -22 18 c-12 9 -22 23 -22 29 0 31 -39 72 -95 100
-33 17 -70 38 -83 48 l-23 18 30 28 29 28 109 -11 c197 -21 406 -85 481 -147
l23 -19 -53 -35 c-65 -43 -103 -103 -125 -198 l-17 -72 -98 0 -98 0 0 -40 0
-40 289 0 c249 0 290 2 302 16 17 21 0 150 -36 264 -24 76 -33 91 -85 142
-114 112 -327 187 -602 213 l-68 7 0 46 c0 46 2 48 51 77 64 37 152 124 186
183 38 64 71 160 79 230 6 60 7 60 43 67 52 10 98 41 129 88 26 39 27 45 27
180 l0 139 -37 33 -37 34 21 48 c18 40 20 59 14 130 -13 173 -83 321 -210 449
-139 139 -286 203 -481 210 -72 2 -131 -1 -170 -10z m300 -92 c197 -47 370
-203 441 -399 25 -68 44 -191 36 -231 -4 -23 -8 -24 -78 -24 -55 0 -74 3 -74
13 0 36 -64 139 -107 172 -42 32 -117 64 -127 54 -2 -2 -7 -20 -11 -41 -7 -35
-6 -37 37 -56 49 -22 92 -64 107 -104 l11 -28 -58 1 c-31 1 -81 4 -111 7 -53
7 -54 8 -66 49 -20 66 -61 128 -107 162 -40 30 -113 59 -122 50 -2 -2 -7 -20
-11 -41 -7 -35 -6 -37 37 -55 40 -18 108 -82 108 -103 0 -4 3 -15 6 -24 5 -13
0 -15 -27 -10 -63 12 -129 46 -163 85 -31 34 -36 36 -41 18 -10 -30 -43 -6
-67 47 -18 41 -22 45 -51 42 -28 -3 -32 -8 -43 -52 -8 -32 -25 -62 -51 -88
-43 -44 -155 -104 -174 -93 -20 13 -5 169 24 253 36 105 81 176 167 262 143
145 299 185 515 134z m-385 -590 c8 -7 38 -24 65 -38 l50 -25 -120 -1 -119 0
44 45 c42 43 50 45 80 19z m790 -276 c0 -130 0 -132 -27 -160 l-27 -28 -206 0
c-194 0 -208 1 -225 20 -14 16 -31 20 -75 20 -44 0 -61 -4 -75 -20 -17 -19
-31 -20 -224 -20 l-205 0 -28 27 c-28 27 -28 27 -28 160 l0 133 560 0 560 0 0
-132z m-1200 -56 l0 -108 40 -39 c58 -57 53 -82 -11 -50 -54 28 -69 67 -69
181 0 94 8 124 32 124 4 0 8 -49 8 -108z m1308 96 c8 -8 12 -48 12 -112 0
-114 -15 -153 -69 -181 -64 -32 -69 -7 -11 50 l40 39 0 108 c0 106 4 120 28
96z m-623 -288 c17 -19 31 -20 227 -20 l208 0 0 -59 c0 -138 -46 -257 -137
-352 -184 -193 -487 -196 -677 -6 -98 97 -146 213 -146 355 l0 62 208 0 c196
0 210 1 227 20 10 11 30 20 45 20 15 0 35 -9 45 -20z m-45 -655 c47 0 102 4
123 8 l37 8 0 -43 c0 -37 -6 -48 -47 -90 -47 -48 -48 -48 -112 -48 -64 0 -66
1 -113 47 -43 42 -48 52 -48 91 l0 43 38 -8 c20 -4 75 -8 122 -8z m165 -285
c33 -22 67 -40 75 -40 17 0 40 -19 40 -32 0 -4 -121 -8 -270 -8 -252 0 -270 1
-270 18 0 38 29 62 74 62 30 0 48 6 61 20 16 18 31 20 124 20 l106 0 60 -40z
m-979 -126 c37 -27 74 -97 81 -154 l6 -40 -113 0 -113 0 7 47 c3 26 16 78 28
116 21 64 24 68 48 62 14 -4 39 -17 56 -31z m1732 -32 c12 -37 25 -89 28 -115
l7 -47 -112 0 c-110 0 -111 0 -111 24 0 35 27 105 54 141 23 30 77 64 102 65
5 0 20 -31 32 -68z m-1146 -52 c4 -25 10 -60 13 -78 6 -33 6 -33 -32 -30 -36
3 -38 5 -45 48 -4 25 -10 60 -13 78 -6 33 -6 33 32 30 36 -3 38 -5 45 -48z
m188 -30 l0 -80 -44 0 -43 0 -7 51 c-4 29 -10 65 -13 80 l-5 29 56 0 56 0 0
-80z m185 48 c-3 -18 -9 -53 -13 -78 -7 -44 -8 -45 -50 -48 l-42 -3 0 80 0 81
55 0 56 0 -6 -32z m162 3 c-3 -15 -9 -51 -13 -80 l-7 -51 -40 0 c-38 0 -39 1
-34 29 3 15 9 51 13 80 l7 51 40 0 c38 0 39 -1 34 -29z"/>
<path d="M810 1665 c-8 -10 -11 -39 -8 -85 3 -63 7 -73 36 -103 l32 -32 130 0
130 0 32 32 c29 30 33 40 36 103 3 46 0 75 -8 85 -18 22 -362 22 -380 0z m310
-89 c0 -43 -25 -57 -94 -54 l-61 3 -3 38 -3 37 80 0 c79 0 81 -1 81 -24z"/>
<path d="M1370 1665 c-8 -10 -11 -39 -8 -85 3 -63 7 -73 36 -103 l32 -32 130
0 130 0 32 32 c29 30 33 40 36 103 3 46 0 75 -8 85 -18 22 -362 22 -380 0z
m310 -93 c0 -45 -15 -52 -116 -52 -101 0 -124 10 -124 56 l0 24 120 0 120 0 0
-28z"/>
<path d="M1402 1208 l3 -32 -75 -18 c-41 -10 -123 -23 -182 -29 l-108 -12 0
-39 c0 -38 0 -38 39 -38 60 0 186 19 282 42 l87 21 36 -28 c19 -15 53 -29 76
-32 l40 -6 0 40 c0 37 -3 41 -30 47 -39 7 -79 47 -86 86 -6 27 -10 30 -46 30
-39 0 -39 -1 -36 -32z"/>
<path d="M920 1080 l0 -40 40 0 40 0 0 40 0 40 -40 0 -40 0 0 -40z"/>
<path d="M355 1111 c-45 -20 -70 -60 -70 -112 0 -42 5 -53 33 -81 28 -28 39
-33 82 -33 43 0 54 5 82 33 28 28 33 39 33 82 0 42 -5 54 -31 81 -33 33 -92
46 -129 30z m75 -86 c26 -32 -13 -81 -47 -59 -35 22 -23 74 17 74 10 0 23 -7
30 -15z"/>
<path d="M595 911 c-45 -20 -70 -60 -70 -112 0 -42 5 -53 33 -81 28 -28 39
-33 82 -33 43 0 54 5 82 33 28 28 33 39 33 82 0 42 -5 54 -31 81 -33 33 -92
46 -129 30z m75 -86 c26 -32 -13 -81 -47 -59 -35 22 -23 74 17 74 10 0 23 -7
30 -15z"/>
<path d="M400 760 l0 -40 40 0 40 0 0 40 0 40 -40 0 -40 0 0 -40z"/>
<path d="M280 640 l0 -40 40 0 40 0 0 40 0 40 -40 0 -40 0 0 -40z"/>
</g>
</svg>
